<svg xmlns="http://www.w3.org/2000/svg" width="1332.7050000000004" height="290.0"><line x1="39.810625" x2="1302.7050000000004" y1="45.0" y2="45.0" stroke="#1967d2" stroke-width="1" /><line x1="39.810625" x2="1302.7050000000004" y1="95.0" y2="95.0" stroke="#1967d2" stroke-width="1" /><line x1="39.810625" x2="1302.7050000000004" y1="145.0" y2="145.0" stroke="#1967d2" stroke-width="1" /><line x1="39.810625" x2="1302.7050000000004" y1="195.0" y2="195.0" stroke="#1967d2" stroke-width="1" /><line x1="39.810625" x2="1302.7050000000004" y1="245.0" y2="245.0" stroke="#1967d2" stroke-width="1" /><line x1="1160.8550781250003" x2="1282.7050000000004" y1="5.0" y2="5.0" stroke="black" stroke-width="1" /><line x1="1160.8550781250003" x2="1282.7050000000004" y1="285.0" y2="285.0" stroke="black" stroke-width="1" /><line x1="576.72" x2="696.3140625000001" y1="5.0" y2="5.0" stroke="black" stroke-width="1" /><line x1="576.72" x2="696.3140625000001" y1="285.0" y2="285.0" stroke="black" stroke-width="1" /><line x1="354.91289062500005" x2="476.76281250000005" y1="5.0" y2="5.0" stroke="black" stroke-width="1" /><line x1="354.91289062500005" x2="476.76281250000005" y1="285.0" y2="285.0" stroke="black" stroke-width="1" /><line x1="125.6424609375" x2="125.6424609375" y1="45.0" y2="95.0" stroke="black" stroke-width="3" /><line x1="217.50332031250002" x2="217.50332031250002" y1="45.0" y2="145.0" stroke="black" stroke-width="3" /><line x1="309.1279296875" x2="309.1279296875" y1="45.0" y2="195.0" stroke="black" stroke-width="3" /><line x1="430.8378515625001" x2="430.8378515625001" y1="45.0" y2="245.0" stroke="black" stroke-width="3" /><line x1="531.7414062500001" x2="531.7414062500001" y1="45.0" y2="95.0" stroke="black" stroke-width="3" /><line x1="651.5170312500001" x2="651.5170312500001" y1="45.0" y2="145.0" stroke="black" stroke-width="3" /><line x1="751.0564062500001" x2="751.0564062500001" y1="45.0" y2="195.0" stroke="black" stroke-width="3" /><line x1="840.6810937500002" x2="840.6810937500002" y1="45.0" y2="245.0" stroke="black" stroke-width="3" /><line x1="931.5846484375002" x2="931.5846484375002" y1="45.0" y2="95.0" stroke="black" stroke-width="3" /><line x1="1023.4455078125002" x2="1023.4455078125002" y1="45.0" y2="145.0" stroke="black" stroke-width="3" /><line x1="1115.0701171875003" x2="1115.0701171875003" y1="45.0" y2="195.0" stroke="black" stroke-width="3" /><line x1="1236.7800390625002" x2="1236.7800390625002" y1="45.0" y2="245.0" stroke="black" stroke-width="3" /><line x1="1160.8550781250003" x2="1160.8550781250003" y1="5.0" y2="15.0" stroke="black" stroke-width="3" /><line x1="1282.7050000000004" x2="1282.7050000000004" y1="5.0" y2="15.0" stroke="black" stroke-width="3" /><line x1="1160.8550781250003" x2="1160.8550781250003" y1="275.0" y2="285.0" stroke="black" stroke-width="3" /><line x1="1282.7050000000004" x2="1282.7050000000004" y1="275.0" y2="285.0" stroke="black" stroke-width="3" /><line x1="576.72" x2="576.72" y1="5.0" y2="15.0" stroke="black" stroke-width="3" /><line x1="696.3140625000001" x2="696.3140625000001" y1="5.0" y2="15.0" stroke="black" stroke-width="3" /><line x1="576.72" x2="576.72" y1="275.0" y2="285.0" stroke="black" stroke-width="3" /><line x1="696.3140625000001" x2="696.3140625000001" y1="275.0" y2="285.0" stroke="black" stroke-width="3" /><line x1="354.91289062500005" x2="354.91289062500005" y1="5.0" y2="15.0" stroke="black" stroke-width="3" /><line x1="476.76281250000005" x2="476.76281250000005" y1="5.0" y2="15.0" stroke="black" stroke-width="3" /><line x1="354.91289062500005" x2="354.91289062500005" y1="275.0" y2="285.0" stroke="black" stroke-width="3" /><line x1="476.76281250000005" x2="476.76281250000005" y1="275.0" y2="285.0" stroke="black" stroke-width="3" /><rect x="10.0" y="25.0" width="59.62125" height="40" stroke="black" fill="white" stroke-width="0" /><text x="39.810625" y="45.0" dominant-baseline="middle" text-anchor="middle" font-size="14px" font-family="Arial">(-1, -1): </text><rect x="10.0" y="75.0" width="59.62125" height="40" stroke="black" fill="white" stroke-width="0" /><text x="39.810625" y="95.0" dominant-baseline="middle" text-anchor="middle" font-size="14px" font-family="Arial">(0, 0): </text><rect x="10.0" y="125.0" width="59.62125" height="40" stroke="black" fill="white" stroke-width="0" /><text x="39.810625" y="145.0" dominant-baseline="middle" text-anchor="middle" font-size="14px" font-family="Arial">(1, 0): </text><rect x="10.0" y="175.0" width="59.62125" height="40" stroke="black" fill="white" stroke-width="0" /><text x="39.810625" y="195.0" dominant-baseline="middle" text-anchor="middle" font-size="14px" font-family="Arial">(2, 0): </text><rect x="10.0" y="225.0" width="59.62125" height="40" stroke="black" fill="white" stroke-width="0" /><text x="39.810625" y="245.0" dominant-baseline="middle" text-anchor="middle" font-size="14px" font-family="Arial">(3, 0): </text><rect x="89.62125" y="75.0" width="72.042421875" height="40" stroke="black" fill="white" stroke-width="1" /><text x="125.6424609375" y="95.0" dominant-baseline="middle" text-anchor="middle" font-size="14px" font-family="Arial">XX^xx_0</text><rect x="89.62125" y="25.0" width="72.042421875" height="40" stroke="black" fill="white" stroke-width="1" /><text x="125.6424609375" y="45.0" dominant-baseline="middle" text-anchor="middle" font-size="14px" font-family="Arial">XX</text><rect x="181.66367187500003" y="125.0" width="71.679296875" height="40" stroke="black" fill="white" stroke-width="1" /><text x="217.50332031250002" y="145.0" dominant-baseline="middle" text-anchor="middle" font-size="14px" font-family="Arial">XX^xx_1</text><rect x="181.66367187500003" y="25.0" width="71.679296875" height="40" stroke="black" fill="white" stroke-width="1" /><text x="217.50332031250002" y="45.0" dominant-baseline="middle" text-anchor="middle" font-size="14px" font-family="Arial">XX</text><rect x="273.34296875" y="175.0" width="71.569921875" height="40" stroke="black" fill="white" stroke-width="1" /><text x="309.1279296875" y="195.0" dominant-baseline="middle" text-anchor="middle" font-size="14px" font-family="Arial">XX^xx_2</text><rect x="273.34296875" y="25.0" width="71.569921875" height="40" stroke="black" fill="white" stroke-width="1" /><text x="309.1279296875" y="45.0" dominant-baseline="middle" text-anchor="middle" font-size="14px" font-family="Arial">XX</text><rect x="354.91289062500005" y="175.0" width="40" height="40" stroke="black" fill="white" stroke-width="1" /><text x="374.91289062500005" y="195.0" dominant-baseline="middle" text-anchor="middle" font-size="18px" font-family="Arial">R</text><rect x="394.91289062500005" y="225.0" width="71.849921875" height="40" stroke="black" fill="white" stroke-width="1" /><text x="430.8378515625001" y="245.0" dominant-baseline="middle" text-anchor="middle" font-size="14px" font-family="Arial">XX^xx_3</text><rect x="394.91289062500005" y="25.0" width="71.849921875" height="40" stroke="black" fill="white" stroke-width="1" /><text x="430.8378515625001" y="45.0" dominant-baseline="middle" text-anchor="middle" font-size="14px" font-family="Arial">XX</text><rect x="496.76281250000005" y="75.0" width="69.9571875" height="40" stroke="black" fill="white" stroke-width="1" /><text x="531.7414062500001" y="95.0" dominant-baseline="middle" text-anchor="middle" font-size="14px" font-family="Arial">ZZ^zz_0</text><rect x="496.76281250000005" y="25.0" width="69.9571875" height="40" stroke="black" fill="white" stroke-width="1" /><text x="531.7414062500001" y="45.0" dominant-baseline="middle" text-anchor="middle" font-size="14px" font-family="Arial">ZZ</text><rect x="576.72" y="75.0" width="40" height="40" stroke="black" fill="white" stroke-width="1" /><text x="596.72" y="95.0" dominant-baseline="middle" text-anchor="middle" font-size="18px" font-family="Arial">R</text><rect x="616.72" y="125.0" width="69.5940625" height="40" stroke="black" fill="white" stroke-width="1" /><text x="651.5170312500001" y="145.0" dominant-baseline="middle" text-anchor="middle" font-size="14px" font-family="Arial">ZZ^zz_1</text><rect x="616.72" y="25.0" width="69.5940625" height="40" stroke="black" fill="white" stroke-width="1" /><text x="651.5170312500001" y="45.0" dominant-baseline="middle" text-anchor="middle" font-size="14px" font-family="Arial">ZZ</text><rect x="716.3140625000001" y="175.0" width="69.4846875" height="40" stroke="black" fill="white" stroke-width="1" /><text x="751.0564062500001" y="195.0" dominant-baseline="middle" text-anchor="middle" font-size="14px" font-family="Arial">ZZ^zz_2</text><rect x="716.3140625000001" y="25.0" width="69.4846875" height="40" stroke="black" fill="white" stroke-width="1" /><text x="751.0564062500001" y="45.0" dominant-baseline="middle" text-anchor="middle" font-size="14px" font-family="Arial">ZZ</text><rect x="805.7987500000002" y="225.0" width="69.76468750000001" height="40" stroke="black" fill="white" stroke-width="1" /><text x="840.6810937500002" y="245.0" dominant-baseline="middle" text-anchor="middle" font-size="14px" font-family="Arial">ZZ^zz_3</text><rect x="805.7987500000002" y="25.0" width="69.76468750000001" height="40" stroke="black" fill="white" stroke-width="1" /><text x="840.6810937500002" y="45.0" dominant-baseline="middle" text-anchor="middle" font-size="14px" font-family="Arial">ZZ</text><rect x="895.5634375000002" y="75.0" width="72.042421875" height="40" stroke="black" fill="white" stroke-width="1" /><text x="931.5846484375002" y="95.0" dominant-baseline="middle" text-anchor="middle" font-size="14px" font-family="Arial">XX^xx_0</text><rect x="895.5634375000002" y="25.0" width="72.042421875" height="40" stroke="black" fill="white" stroke-width="1" /><text x="931.5846484375002" y="45.0" dominant-baseline="middle" text-anchor="middle" font-size="14px" font-family="Arial">XX</text><rect x="987.6058593750001" y="125.0" width="71.679296875" height="40" stroke="black" fill="white" stroke-width="1" /><text x="1023.4455078125002" y="145.0" dominant-baseline="middle" text-anchor="middle" font-size="14px" font-family="Arial">XX^xx_1</text><rect x="987.6058593750001" y="25.0" width="71.679296875" height="40" stroke="black" fill="white" stroke-width="1" /><text x="1023.4455078125002" y="45.0" dominant-baseline="middle" text-anchor="middle" font-size="14px" font-family="Arial">XX</text><rect x="1079.2851562500002" y="175.0" width="71.569921875" height="40" stroke="black" fill="white" stroke-width="1" /><text x="1115.0701171875003" y="195.0" dominant-baseline="middle" text-anchor="middle" font-size="14px" font-family="Arial">XX^xx_2</text><rect x="1079.2851562500002" y="25.0" width="71.569921875" height="40" stroke="black" fill="white" stroke-width="1" /><text x="1115.0701171875003" y="45.0" dominant-baseline="middle" text-anchor="middle" font-size="14px" font-family="Arial">XX</text><rect x="1160.8550781250003" y="175.0" width="40" height="40" stroke="black" fill="white" stroke-width="1" /><text x="1180.8550781250003" y="195.0" dominant-baseline="middle" text-anchor="middle" font-size="18px" font-family="Arial">R</text><rect x="1200.8550781250003" y="225.0" width="71.849921875" height="40" stroke="black" fill="white" stroke-width="1" /><text x="1236.7800390625002" y="245.0" dominant-baseline="middle" text-anchor="middle" font-size="14px" font-family="Arial">XX^xx_3</text><rect x="1200.8550781250003" y="25.0" width="71.849921875" height="40" stroke="black" fill="white" stroke-width="1" /><text x="1236.7800390625002" y="45.0" dominant-baseline="middle" text-anchor="middle" font-size="14px" font-family="Arial">XX</text></svg>