<svg xmlns="http://www.w3.org/2000/svg" width="1212.7050000000002" height="350.0"><line x1="39.810625" x2="1182.7050000000002" y1="25.0" y2="25.0" stroke="#1967d2" stroke-width="1" /><line x1="39.810625" x2="1182.7050000000002" y1="75.0" y2="75.0" stroke="#1967d2" stroke-width="1" /><line x1="39.810625" x2="1182.7050000000002" y1="125.0" y2="125.0" stroke="#1967d2" stroke-width="1" /><line x1="39.810625" x2="1182.7050000000002" y1="175.0" y2="175.0" stroke="#1967d2" stroke-width="1" /><line x1="39.810625" x2="1182.7050000000002" y1="225.0" y2="225.0" stroke="#1967d2" stroke-width="1" /><line x1="39.810625" x2="1182.7050000000002" y1="275.0" y2="275.0" stroke="#1967d2" stroke-width="1" /><line x1="39.810625" x2="1182.7050000000002" y1="325.0" y2="325.0" stroke="#1967d2" stroke-width="1" /><line x1="125.6424609375" x2="125.6424609375" y1="125.0" y2="175.0" stroke="black" stroke-width="3" /><line x1="217.50332031250002" x2="217.50332031250002" y1="125.0" y2="225.0" stroke="black" stroke-width="3" /><line x1="309.1279296875" x2="309.1279296875" y1="125.0" y2="275.0" stroke="black" stroke-width="3" /><line x1="400.8378515625001" x2="400.8378515625001" y1="125.0" y2="325.0" stroke="black" stroke-width="3" /><line x1="491.74140625000007" x2="491.74140625000007" y1="125.0" y2="175.0" stroke="black" stroke-width="3" /><line x1="581.5170312500001" x2="581.5170312500001" y1="75.0" y2="125.0" stroke="black" stroke-width="3" /><line x1="671.0564062500001" x2="671.0564062500001" y1="125.0" y2="275.0" stroke="black" stroke-width="3" /><line x1="760.6810937500002" x2="760.6810937500002" y1="125.0" y2="325.0" stroke="black" stroke-width="3" /><line x1="851.5846484375002" x2="851.5846484375002" y1="125.0" y2="175.0" stroke="black" stroke-width="3" /><line x1="943.4455078125002" x2="943.4455078125002" y1="25.0" y2="125.0" stroke="black" stroke-width="3" /><line x1="1035.0701171875" x2="1035.0701171875" y1="125.0" y2="275.0" stroke="black" stroke-width="3" /><line x1="1126.7800390625" x2="1126.7800390625" y1="125.0" y2="325.0" stroke="black" stroke-width="3" /><rect x="10.0" y="5.0" width="59.62125" height="40" stroke="black" fill="white" stroke-width="0" /><text x="39.810625" y="25.0" dominant-baseline="middle" text-anchor="middle" font-size="14px" font-family="Arial">(-3, -3): </text><rect x="10.0" y="55.0" width="59.62125" height="40" stroke="black" fill="white" stroke-width="0" /><text x="39.810625" y="75.0" dominant-baseline="middle" text-anchor="middle" font-size="14px" font-family="Arial">(-2, -2): </text><rect x="10.0" y="105.0" width="59.62125" height="40" stroke="black" fill="white" stroke-width="0" /><text x="39.810625" y="125.0" dominant-baseline="middle" text-anchor="middle" font-size="14px" font-family="Arial">(-1, -1): </text><rect x="10.0" y="155.0" width="59.62125" height="40" stroke="black" fill="white" stroke-width="0" /><text x="39.810625" y="175.0" dominant-baseline="middle" text-anchor="middle" font-size="14px" font-family="Arial">(0, 0): </text><rect x="10.0" y="205.0" width="59.62125" height="40" stroke="black" fill="white" stroke-width="0" /><text x="39.810625" y="225.0" dominant-baseline="middle" text-anchor="middle" font-size="14px" font-family="Arial">(1, 0): </text><rect x="10.0" y="255.0" width="59.62125" height="40" stroke="black" fill="white" stroke-width="0" /><text x="39.810625" y="275.0" dominant-baseline="middle" text-anchor="middle" font-size="14px" font-family="Arial">(2, 0): </text><rect x="10.0" y="305.0" width="59.62125" height="40" stroke="black" fill="white" stroke-width="0" /><text x="39.810625" y="325.0" dominant-baseline="middle" text-anchor="middle" font-size="14px" font-family="Arial">(3, 0): </text><rect x="89.62125" y="155.0" width="72.042421875" height="40" stroke="black" fill="white" stroke-width="1" /><text x="125.6424609375" y="175.0" dominant-baseline="middle" text-anchor="middle" font-size="14px" font-family="Arial">XX^xx_0</text><rect x="89.62125" y="105.0" width="72.042421875" height="40" stroke="black" fill="white" stroke-width="1" /><text x="125.6424609375" y="125.0" dominant-baseline="middle" text-anchor="middle" font-size="14px" font-family="Arial">XX</text><rect x="181.66367187500003" y="205.0" width="71.679296875" height="40" stroke="black" fill="white" stroke-width="1" /><text x="217.50332031250002" y="225.0" dominant-baseline="middle" text-anchor="middle" font-size="14px" font-family="Arial">XX^xx_1</text><rect x="181.66367187500003" y="105.0" width="71.679296875" height="40" stroke="black" fill="white" stroke-width="1" /><text x="217.50332031250002" y="125.0" dominant-baseline="middle" text-anchor="middle" font-size="14px" font-family="Arial">XX</text><rect x="273.34296875" y="255.0" width="71.569921875" height="40" stroke="black" fill="white" stroke-width="1" /><text x="309.1279296875" y="275.0" dominant-baseline="middle" text-anchor="middle" font-size="14px" font-family="Arial">XX^xx_2</text><rect x="273.34296875" y="105.0" width="71.569921875" height="40" stroke="black" fill="white" stroke-width="1" /><text x="309.1279296875" y="125.0" dominant-baseline="middle" text-anchor="middle" font-size="14px" font-family="Arial">XX</text><rect x="364.91289062500005" y="305.0" width="71.849921875" height="40" stroke="black" fill="white" stroke-width="1" /><text x="400.8378515625001" y="325.0" dominant-baseline="middle" text-anchor="middle" font-size="14px" font-family="Arial">XX^xx_3</text><rect x="364.91289062500005" y="105.0" width="71.849921875" height="40" stroke="black" fill="white" stroke-width="1" /><text x="400.8378515625001" y="125.0" dominant-baseline="middle" text-anchor="middle" font-size="14px" font-family="Arial">XX</text><rect x="456.76281250000005" y="155.0" width="69.9571875" height="40" stroke="black" fill="white" stroke-width="1" /><text x="491.74140625000007" y="175.0" dominant-baseline="middle" text-anchor="middle" font-size="14px" font-family="Arial">ZZ^zz_0</text><rect x="456.76281250000005" y="105.0" width="69.9571875" height="40" stroke="black" fill="white" stroke-width="1" /><text x="491.74140625000007" y="125.0" dominant-baseline="middle" text-anchor="middle" font-size="14px" font-family="Arial">ZZ</text><rect x="546.72" y="55.0" width="69.5940625" height="40" stroke="black" fill="white" stroke-width="1" /><text x="581.5170312500001" y="75.0" dominant-baseline="middle" text-anchor="middle" font-size="14px" font-family="Arial">ZZ</text><rect x="546.72" y="105.0" width="69.5940625" height="40" stroke="black" fill="white" stroke-width="1" /><text x="581.5170312500001" y="125.0" dominant-baseline="middle" text-anchor="middle" font-size="14px" font-family="Arial">ZZ^zz_1</text><rect x="636.3140625000001" y="255.0" width="69.4846875" height="40" stroke="black" fill="white" stroke-width="1" /><text x="671.0564062500001" y="275.0" dominant-baseline="middle" text-anchor="middle" font-size="14px" font-family="Arial">ZZ^zz_2</text><rect x="636.3140625000001" y="105.0" width="69.4846875" height="40" stroke="black" fill="white" stroke-width="1" /><text x="671.0564062500001" y="125.0" dominant-baseline="middle" text-anchor="middle" font-size="14px" font-family="Arial">ZZ</text><rect x="725.7987500000002" y="305.0" width="69.76468750000001" height="40" stroke="black" fill="white" stroke-width="1" /><text x="760.6810937500002" y="325.0" dominant-baseline="middle" text-anchor="middle" font-size="14px" font-family="Arial">ZZ^zz_3</text><rect x="725.7987500000002" y="105.0" width="69.76468750000001" height="40" stroke="black" fill="white" stroke-width="1" /><text x="760.6810937500002" y="125.0" dominant-baseline="middle" text-anchor="middle" font-size="14px" font-family="Arial">ZZ</text><rect x="815.5634375000002" y="155.0" width="72.042421875" height="40" stroke="black" fill="white" stroke-width="1" /><text x="851.5846484375002" y="175.0" dominant-baseline="middle" text-anchor="middle" font-size="14px" font-family="Arial">XX^xx_0</text><rect x="815.5634375000002" y="105.0" width="72.042421875" height="40" stroke="black" fill="white" stroke-width="1" /><text x="851.5846484375002" y="125.0" dominant-baseline="middle" text-anchor="middle" font-size="14px" font-family="Arial">XX</text><rect x="907.6058593750001" y="5.0" width="71.679296875" height="40" stroke="black" fill="white" stroke-width="1" /><text x="943.4455078125002" y="25.0" dominant-baseline="middle" text-anchor="middle" font-size="14px" font-family="Arial">XX</text><rect x="907.6058593750001" y="105.0" width="71.679296875" height="40" stroke="black" fill="white" stroke-width="1" /><text x="943.4455078125002" y="125.0" dominant-baseline="middle" text-anchor="middle" font-size="14px" font-family="Arial">XX^xx_1</text><rect x="999.28515625" y="255.0" width="71.569921875" height="40" stroke="black" fill="white" stroke-width="1" /><text x="1035.0701171875" y="275.0" dominant-baseline="middle" text-anchor="middle" font-size="14px" font-family="Arial">XX^xx_2</text><rect x="999.28515625" y="105.0" width="71.569921875" height="40" stroke="black" fill="white" stroke-width="1" /><text x="1035.0701171875" y="125.0" dominant-baseline="middle" text-anchor="middle" font-size="14px" font-family="Arial">XX</text><rect x="1090.855078125" y="305.0" width="71.849921875" height="40" stroke="black" fill="white" stroke-width="1" /><text x="1126.7800390625" y="325.0" dominant-baseline="middle" text-anchor="middle" font-size="14px" font-family="Arial">XX^xx_3</text><rect x="1090.855078125" y="105.0" width="71.849921875" height="40" stroke="black" fill="white" stroke-width="1" /><text x="1126.7800390625" y="125.0" dominant-baseline="middle" text-anchor="middle" font-size="14px" font-family="Arial">XX</text></svg>